<svg width="24" height="25" viewBox="0 0 24 25" fill="none" xmlns="http://www.w3.org/2000/svg">
<path d="M10.75 5.14L6.32 2.95C3.93 1.78 1.97 2.97 1.97 5.59V20.43C1.97 21.57 2.92 22.5 4.08 22.5H11.5C12.05 22.5 12.5 22.05 12.5 21.5V7.91C12.5 6.86 11.71 5.61 10.75 5.14ZM8.97 14.25H5.5C5.09 14.25 4.75 13.91 4.75 13.5C4.75 13.09 5.09 12.75 5.5 12.75H8.97C9.38 12.75 9.72 13.09 9.72 13.5C9.72 13.91 9.39 14.25 8.97 14.25ZM8.97 10.25H5.5C5.09 10.25 4.75 9.91 4.75 9.5C4.75 9.09 5.09 8.75 5.5 8.75H8.97C9.38 8.75 9.72 9.09 9.72 9.5C9.72 9.91 9.39 10.25 8.97 10.25Z" fill="#292D32"/>
<path d="M22 18.54V20C22 21.38 20.88 22.5 19.5 22.5H14.97C14.43 22.5 14 22.07 14 21.53V19.37C15.07 19.5 16.2 19.19 17.01 18.54C17.69 19.09 18.56 19.42 19.51 19.42C20.44 19.42 21.31 19.09 22 18.54Z" fill="#292D32"/>
<path d="M22 15.55V15.56C21.92 16.87 20.85 17.92 19.51 17.92C18.12 17.92 17.01 16.79 17.01 15.42C17.01 16.95 15.6 18.18 14 17.87V12.5C14 11.86 14.59 11.38 15.22 11.52L17.01 11.92L17.49 12.03L19.53 12.49C20.02 12.59 20.47 12.76 20.86 13.01C20.86 13.02 20.87 13.02 20.87 13.02C20.97 13.09 21.07 13.17 21.16 13.26C21.62 13.72 21.92 14.39 21.99 15.37C21.99 15.43 22 15.49 22 15.55Z" fill="#292D32"/>
</svg>
