<svg width="50" height="50" viewBox="0 0 50 50" fill="none" xmlns="http://www.w3.org/2000/svg">
<rect width="50" height="50" rx="25" fill="#EFF2F5"/>
<path d="M29.07 16.8417C27.4109 16.8417 25.9259 17.6483 25 18.8858C24.0742 17.6483 22.5892 16.8417 20.93 16.8417C18.1159 16.8417 15.8334 19.1333 15.8334 21.9658C15.8334 23.0567 16.0075 24.065 16.31 25C17.7584 29.5833 22.2225 32.3242 24.4317 33.0758C24.7434 33.1858 25.2567 33.1858 25.5684 33.0758C27.7775 32.3242 32.2417 29.5833 33.69 25C33.9925 24.065 34.1667 23.0567 34.1667 21.9658C34.1667 19.1333 31.8842 16.8417 29.07 16.8417Z" fill="#B3BFCB"/>
</svg>
