<svg width="74" height="78" viewBox="0 0 74 78" fill="none" xmlns="http://www.w3.org/2000/svg">
<g filter="url(#filter0_d_1_3542)">
<path d="M14 32.8614C14 20.2354 24.374 10 37 10C49.626 10 60 20.2354 60 32.8614C60 39.8921 56.765 46.5317 51.2283 50.8648L48.5 53L40.9975 58.2192C38.5946 59.8907 35.4054 59.8907 33.0025 58.2192L25.5 53L22.7717 50.8648C17.235 46.5317 14 39.8921 14 32.8614Z" fill="white"/>
</g>
<rect x="22" y="18" width="30" height="30" rx="15" fill="#8492AD" fill-opacity="0.1"/>
<path d="M43.6225 30.0075L38.71 26.0775C37.75 25.3125 36.25 25.305 35.2975 26.07L30.385 30.0075C29.68 30.57 29.2525 31.695 29.4025 32.58L30.3475 38.235C30.565 39.5025 31.7425 40.5 33.025 40.5H40.975C42.2425 40.5 43.4425 39.48 43.66 38.2275L44.605 32.5725C44.74 31.695 44.3125 30.57 43.6225 30.0075ZM37.5625 37.5C37.5625 37.8075 37.3075 38.0625 37 38.0625C36.6925 38.0625 36.4375 37.8075 36.4375 37.5V35.25C36.4375 34.9425 36.6925 34.6875 37 34.6875C37.3075 34.6875 37.5625 34.9425 37.5625 35.25V37.5Z" fill="#3299F8"/>
<defs>
<filter id="filter0_d_1_3542" x="0" y="0" width="74" height="77.4728" filterUnits="userSpaceOnUse" color-interpolation-filters="sRGB">
<feFlood flood-opacity="0" result="BackgroundImageFix"/>
<feColorMatrix in="SourceAlpha" type="matrix" values="0 0 0 0 0 0 0 0 0 0 0 0 0 0 0 0 0 0 127 0" result="hardAlpha"/>
<feOffset dy="4"/>
<feGaussianBlur stdDeviation="7"/>
<feComposite in2="hardAlpha" operator="out"/>
<feColorMatrix type="matrix" values="0 0 0 0 0.160784 0 0 0 0 0.176471 0 0 0 0 0.196078 0 0 0 0.3 0"/>
<feBlend mode="normal" in2="BackgroundImageFix" result="effect1_dropShadow_1_3542"/>
<feBlend mode="normal" in="SourceGraphic" in2="effect1_dropShadow_1_3542" result="shape"/>
</filter>
</defs>
</svg>
