<svg width="28" height="29" viewBox="0 0 28 29" fill="none" xmlns="http://www.w3.org/2000/svg">
<path d="M24.0567 10.3583C22.8317 4.96834 18.13 2.54167 14 2.54167C14 2.54167 14 2.54167 13.9883 2.54167C9.87 2.54167 5.15667 4.95667 3.93167 10.3467C2.56667 16.3667 6.25334 21.465 9.59 24.6733C10.8267 25.8633 12.4133 26.4583 14 26.4583C15.5867 26.4583 17.1733 25.8633 18.3983 24.6733C21.735 21.465 25.4217 16.3783 24.0567 10.3583ZM14 16.2033C11.97 16.2033 10.325 14.5583 10.325 12.5283C10.325 10.4983 11.97 8.85334 14 8.85334C16.03 8.85334 17.675 10.4983 17.675 12.5283C17.675 14.5583 16.03 16.2033 14 16.2033Z" fill="#292D32"/>
</svg>
