<svg width="16" height="16" viewBox="0 0 16 16" fill="none" xmlns="http://www.w3.org/2000/svg">
<path d="M5.71232 3.7942C6.51107 2.1203 6.91044 1.28336 7.48693 1.07351C7.81834 0.952879 8.18166 0.952879 8.51307 1.07351C9.08956 1.28336 9.48893 2.1203 10.2877 3.79419C10.5235 4.28844 10.6414 4.53556 10.8257 4.71876C10.9353 4.82772 11.061 4.91909 11.1985 4.98964C11.4297 5.10826 11.7011 5.14404 12.2441 5.21561C14.0829 5.458 15.0023 5.57919 15.38 6.06262C15.5971 6.34053 15.7094 6.68607 15.6971 7.03854C15.6757 7.65166 15.0031 8.29012 13.6579 9.56703C13.2608 9.94406 13.0622 10.1326 12.9449 10.3644C12.8751 10.5023 12.8271 10.6501 12.8025 10.8027C12.7611 11.0592 12.811 11.3284 12.9107 11.8669C13.2484 13.6906 13.4172 14.6025 13.0742 15.1111C12.8769 15.4035 12.583 15.617 12.244 15.7142C11.6543 15.8833 10.8392 15.441 9.20913 14.5562C8.72782 14.295 8.48716 14.1644 8.23042 14.1245C8.07772 14.1008 7.92228 14.1008 7.76958 14.1245C7.51284 14.1644 7.27218 14.295 6.79087 14.5562C5.16079 15.441 4.34575 15.8833 3.75601 15.7142C3.41699 15.617 3.12305 15.4035 2.92585 15.1111C2.5828 14.6025 2.75164 13.6906 3.08934 11.8669C3.18905 11.3284 3.2389 11.0592 3.19752 10.8027C3.17291 10.6501 3.12488 10.5023 3.05512 10.3644C2.93782 10.1326 2.73923 9.94406 2.34205 9.56703C0.996915 8.29012 0.324345 7.65166 0.302916 7.03854C0.290597 6.68607 0.40287 6.34053 0.620012 6.06262C0.997732 5.57919 1.91713 5.458 3.75592 5.21561C4.29885 5.14404 4.57032 5.10826 4.80149 4.98964C4.93897 4.91909 5.06473 4.82772 5.17431 4.71876C5.35856 4.53556 5.47648 4.28844 5.71232 3.7942Z" fill="#F5A94F"/>
</svg>
